<?xml version="1.0" encoding="utf-8"?>
<!-- Generator: Adobe Illustrator 19.2.1, SVG Export Plug-In . SVG Version: 6.00 Build 0)  -->
<svg version="1.1" xmlns="http://www.w3.org/2000/svg" xmlns:xlink="http://www.w3.org/1999/xlink" x="0px" y="0px"
	 viewBox="0 0 253.2 117.3" style="enable-background:new 0 0 253.2 117.3;" xml:space="preserve">
<style type="text/css">
	.st0{fill:#D14933;}
	.st1{fill:#ED5434;}
	.st2{fill:#FFF;}
</style>
<g id="Cloak">
	<path id="XMLID_17_" class="st0" d="M129.9,52.6c0,0-10.1,12.8-22.1,12.1c-12.1-0.7-28.7-21-61.1-20.8c-7.9,0-16.1,0.9-21.7,3.7
		C19.8,50.2,6.4,55.7,3,64.8c-1.1,2.9,3.3-0.2,4.9,3c1.8,3.5,0.8,13.1,2.6,14.2c2.8,1.6,3.5-3.3,7.2,0.2c9.1,8.6,3.5,22.7,13.1,29.7
		c8.9,6.5,18.9-12.7,32.5-27.6C76.2,70,133.1,83.6,135.9,58C137.9,39.8,129.9,52.6,129.9,52.6z"/>
	<path id="XMLID_16_" class="st1" d="M130.9,50.6c0,0-10.1,12.8-22.1,12.1c-12.1-0.7-28.7-21-61.1-20.8c-7.9,0-16.1,0.9-21.7,3.7
		C20.8,48.2,7.8,54.8,4,62.8c-2.8,5.9,6.2-3.7,6.7,8.8c0.6,14.3,2.5,3.2,8,8.6c8.9,8.8,2.7,24.4,12.1,31.7s19.3-15.4,35.8-27
		c16.1-11.3,67.4-3.3,70.2-28.9C138.9,37.8,130.9,50.6,130.9,50.6z"/>
</g>
<g id="Hero">
	<path class="st2" d="M129.6,46h7.9v43.2h-7.9V71.5h-28.3v17.6h-7.9V46h7.9v17.6h28.3V46z"/>
	<path class="st2" d="M171.1,54.4c2.3,0,4.2,0.8,5.9,2.4c1.6,1.6,2.4,3.6,2.4,5.8v13.1h-27.5v5.2c0,0.3,0.1,0.4,0.4,0.4h27.1v7.9
		h-27.1c-2.3,0-4.2-0.8-5.8-2.4c-1.6-1.6-2.4-3.6-2.4-5.8V62.6c0-2.3,0.8-4.2,2.4-5.8c1.6-1.6,3.6-2.4,5.8-2.4H171.1z M151.9,67.8
		h19.6v-5.2c0-0.3-0.1-0.4-0.4-0.4h-18.8c-0.3,0-0.4,0.1-0.4,0.4V67.8z"/>
	<path class="st2" d="M192.4,54.4h19.3v7.9h-19.3c-0.3,0-0.4,0.1-0.4,0.4v26.5h-7.9V62.6c0-2.3,0.8-4.2,2.4-5.8
		C188.2,55.2,190.1,54.4,192.4,54.4z"/>
	<path class="st2" d="M224,54.4h18.8c2.3,0,4.2,0.8,5.9,2.4c1.6,1.6,2.4,3.6,2.4,5.8v18.2c0,2.3-0.8,4.2-2.4,5.8
		c-1.6,1.6-3.6,2.4-5.9,2.4H224c-2.3,0-4.2-0.8-5.8-2.4c-1.6-1.6-2.4-3.6-2.4-5.8V62.6c0-2.3,0.8-4.2,2.4-5.8
		C219.8,55.2,221.8,54.4,224,54.4z M242.8,62.2H224c-0.3,0-0.4,0.1-0.4,0.4v18.2c0,0.3,0.1,0.4,0.4,0.4h18.8c0.3,0,0.4-0.1,0.4-0.4
		V62.6C243.2,62.4,243.1,62.2,242.8,62.2z"/>
</g>
<g id="UI">
	<path class="st1" d="M185.6,45.8V2.6h8v43.2H185.6z"/>
	<path class="st2" d="M173.6,37.5V2.6h8v34.9c0,2.3-0.8,4.3-2.5,5.9c-1.6,1.6-3.6,2.4-5.9,2.4h-26.5c-2.3,0-4.3-0.8-5.9-2.4
		c-1.6-1.6-2.4-3.6-2.4-5.9V2.6h7.9v34.9c0,0.3,0.1,0.4,0.4,0.4h26.5C173.4,37.9,173.6,37.8,173.6,37.5z"/>
</g>
</svg>
