<?xml version="1.0" encoding="utf-8"?>
<!-- Generator: Adobe Illustrator 19.2.1, SVG Export Plug-In . SVG Version: 6.00 Build 0)  -->
<svg version="1.1" xmlns="http://www.w3.org/2000/svg" xmlns:xlink="http://www.w3.org/1999/xlink" x="0px" y="0px"
	 viewBox="0 0 980.6 946.3" style="enable-background:new 0 0 980.6 946.3;" xml:space="preserve">
 <style type="text/css">.st0,.st1,.st3,.st6,.st7,.st8,.st9,.st10,.st11,.st12,.st13,.st14,.st15,.st17{
	    transition: 0.2s ease-in-out;
	}
	.st4{transition: 0.4s cubic-bezier(.17,.67,1,-0.26);}
	.st0{fill:#F13C26;}
	.st1{fill:#FFFFFF;}
	.st2{fill:#F4F4F4;}
	.st3{fill:#183736;}
	.st4{opacity:0;}
	.st5{display:inline;}
	.st6{fill:#261300;}
	.st7{fill:#FF7C00;}
	.st8{fill:#0D0B21;}
	.st9{fill:#36BEF0;}
	.st10{fill:#F1432A;}
	.st11{fill:#F66632;}
	.st12{fill:#30A9DC;}
	.st13{fill:#F5C635;}
	.st14{fill:#323330;}
	.st15{fill:#A4C639;}
	.st16{fill:none;}
	.st17{fill:#2984B8;}
	.main-circle:hover &gt; circle{fill:#F13C26;}
	.main-circle:hover .icon .st10{fill:#fff;}
	.main-circle:hover .hover-content{opacity:1;}</style>
 <g>
  <title>Layer 1</title>
  <g id="axis">
   <rect id="svg_1" height="633" width="3.4" class="st0" transform="matrix(0.5736,0.8192,-0.8192,0.5736,545.8303,-241.8317) " y="102.09439" x="525.34303"/>
   <rect id="svg_2" height="719.9" width="3.4" class="st0" transform="matrix(0.5736,-0.8192,0.8192,0.5736,-109.7395,546.0326) " y="33.79439" x="446.05697"/>
  </g>
  <g id="core-skills">
   <g id="svg_3">
    <circle id="svg_4" r="164.10001" cy="435.06667" cx="501.8" class="st1"/>
    <path id="svg_5" d="m501.8,270.86667c90.7,0 164.1,73.5 164.1,164.1s-73.5,164.1 -164.1,164.1s-164.1,-73.4 -164.1,-164s73.5,-164.2 164.1,-164.2m0,-10c-23.5,0 -46.3,4.6 -67.8,13.7c-20.7,8.8 -39.4,21.3 -55.3,37.3c-16,16 -28.5,34.6 -37.3,55.3c-9.1,21.5 -13.7,44.3 -13.7,67.8s4.6,46.3 13.7,67.8c8.8,20.7 21.3,39.4 37.3,55.3c16,16 34.6,28.5 55.3,37.3c21.5,9.1 44.3,13.7 67.8,13.7s46.3,-4.6 67.8,-13.7c20.7,-8.8 39.4,-21.3 55.3,-37.3s28.5,-34.6 37.3,-55.3c9.1,-21.5 13.7,-44.3 13.7,-67.8s-4.6,-46.3 -13.7,-67.8c-8.8,-20.7 -21.3,-39.4 -37.3,-55.3s-34.6,-28.5 -55.3,-37.3c-21.5,-9.1 -44.3,-13.7 -67.8,-13.7l0,0z" class="st2"/>
   </g>
   <g id="svg_6">
    <path id="svg_7" d="m464.8,416.56667c-2.1,0 -3.9,-0.3 -5.5,-0.8c-1.6,-0.5 -2.9,-1.3 -4,-2.2c-1,-0.9 -1.9,-2.1 -2.5,-3.5c-0.7,-1.4 -1.1,-2.9 -1.4,-4.5s-0.4,-3.4 -0.4,-5.4l0,-16.9c0,-2.1 0.1,-4 0.4,-5.6c0.3,-1.6 0.7,-3.1 1.4,-4.5s1.5,-2.5 2.5,-3.4c1,-0.9 2.4,-1.6 4,-2.1c1.6,-0.5 3.4,-0.8 5.6,-0.8c2.4,0 4.5,0.3 6.2,1c1.7,0.6 3.1,1.6 4.1,2.8s1.7,2.7 2.2,4.4c0.4,1.7 0.7,3.6 0.7,5.8l0,4.2l-8.5,0l0,-4.1c0,-2.4 -0.1,-4.1 -0.4,-4.9c-0.5,-1.6 -1.7,-2.5 -3.7,-2.6c-0.2,0 -0.3,0 -0.5,0c-0.7,0 -1.4,0.1 -1.9,0.3s-1,0.5 -1.4,0.8s-0.6,0.8 -0.8,1.2c-0.2,0.4 -0.4,1 -0.5,1.7c-0.1,0.7 -0.2,1.3 -0.2,1.9s0,1.3 0,2.2l0,20.6c0,2.9 0.4,4.9 1.1,6.1c0.7,1.2 2,1.8 3.8,1.8c0.6,0 1.2,-0.1 1.7,-0.2c0.5,-0.1 0.9,-0.3 1.2,-0.6s0.6,-0.5 0.8,-1c0.2,-0.4 0.4,-0.8 0.5,-1.2s0.2,-0.9 0.3,-1.5s0.1,-1.2 0.1,-1.6c0,-0.4 0,-1.1 0,-1.8l0,-4.3l8.5,0l0,4c0,1.8 -0.1,3.4 -0.4,4.9c-0.3,1.4 -0.7,2.8 -1.3,4.1s-1.4,2.3 -2.4,3.2c-1,0.8 -2.2,1.5 -3.8,2s-3.5,0.5 -5.5,0.5z" class="st0"/>
    <path id="svg_8" d="m494,416.56667c-3.7,0 -6.5,-1 -8.3,-3.1c-1.8,-2.1 -2.7,-5.1 -2.7,-9l0,-11.5c0,-3.9 0.9,-6.9 2.7,-9c1.8,-2.1 4.6,-3.1 8.3,-3.1c3.8,0 6.5,1 8.4,3.1c1.8,2.1 2.8,5.1 2.8,9l0,11.5c0,3.9 -0.9,6.9 -2.8,9c-1.8,2.1 -4.6,3.1 -8.4,3.1zm0,-5.8c0.7,0 1.2,-0.1 1.6,-0.4c0.4,-0.3 0.7,-0.7 0.9,-1.4c0.2,-0.6 0.3,-1.2 0.4,-1.8s0.1,-1.3 0.1,-2.2l0,-12.6c0,-0.7 0,-1.3 0,-1.8s-0.1,-1 -0.2,-1.6c-0.1,-0.6 -0.3,-1 -0.5,-1.3c-0.2,-0.3 -0.5,-0.6 -0.9,-0.8c-0.4,-0.2 -0.8,-0.3 -1.4,-0.3c-0.7,0 -1.2,0.2 -1.6,0.5c-0.4,0.3 -0.7,0.8 -0.9,1.4c-0.2,0.6 -0.3,1.2 -0.4,1.8s-0.1,1.3 -0.1,2.2l0,12.6c0,0.7 0,1.3 0,1.8s0.1,1 0.2,1.6c0.1,0.6 0.3,1 0.5,1.3c0.2,0.3 0.5,0.6 0.9,0.8c0.4,0.1 0.9,0.2 1.4,0.2z" class="st0"/>
    <path id="svg_9" d="m510.9,416.06667l0,-34.7l8.2,0l0,5.3c1.2,-2.1 2.3,-3.5 3.5,-4.4s2.4,-1.3 3.8,-1.3c0.4,0 0.8,0 1.2,0.1l0,8.1c-0.9,-0.4 -1.9,-0.5 -2.8,-0.5c-1.2,0 -2.2,0.3 -3.1,0.9s-1.8,1.5 -2.6,2.7l0,23.8l-8.2,0z" class="st0"/>
    <path id="svg_10" d="m542.1,416.56667c-4,0 -6.8,-1.1 -8.6,-3.3s-2.6,-5.4 -2.6,-9.7l0,-9.8c0,-4.3 0.9,-7.5 2.6,-9.7s4.6,-3.3 8.5,-3.3c2.1,0 3.8,0.3 5.2,0.9s2.5,1.5 3.3,2.8s1.4,2.7 1.7,4.3s0.5,3.5 0.5,5.8l0,4.5l-13.7,0l0,5.2c0,0.7 0,1.3 0,1.7s0,0.9 0.1,1.5s0.2,1 0.3,1.3s0.3,0.6 0.5,1s0.5,0.6 0.8,0.7s0.8,0.2 1.2,0.2c1.1,0 1.9,-0.4 2.3,-1.2s0.6,-1.9 0.6,-3.4l0,-2l7.8,0l0,1.4c0,3.6 -0.9,6.3 -2.7,8.2s-4.3,2.9 -7.8,2.9zm-3,-21.6l5.9,0l0,-3.3c0,-1.8 -0.2,-3 -0.7,-3.8s-1.2,-1.1 -2.3,-1.1c-1.1,0 -1.9,0.4 -2.3,1.3s-0.6,2.4 -0.6,4.7l0,2.2z" class="st0"/>
    <path id="svg_11" d="m453.8,488.56667c-8.6,0 -13,-4.9 -13.5,-14.8l7.7,-1.6c0.2,6.4 2,9.6 5.5,9.6c1.3,0 2.3,-0.4 3,-1.2c0.7,-0.8 1,-1.9 1,-3.3c0,-1.3 -0.2,-2.6 -0.7,-3.7c-0.5,-1.1 -1.1,-2 -1.7,-2.8s-1.6,-1.6 -2.8,-2.7l-6.3,-5.4c-1.9,-1.6 -3.3,-3.3 -4.2,-5.1c-0.9,-1.8 -1.4,-4 -1.4,-6.6c0,-3.8 1.1,-6.7 3.3,-8.8c2.2,-2.1 5.3,-3.2 9.1,-3.2c1.8,0 3.3,0.2 4.7,0.7c1.4,0.5 2.5,1.1 3.4,1.8c0.9,0.8 1.6,1.7 2.2,2.9c0.6,1.2 1,2.3 1.3,3.6s0.5,2.6 0.6,4.1l-7.6,1.5c0,-1 -0.1,-1.8 -0.2,-2.5s-0.2,-1.5 -0.5,-2.2c-0.2,-0.7 -0.5,-1.3 -0.8,-1.8c-0.3,-0.5 -0.8,-0.8 -1.4,-1.1c-0.6,-0.3 -1.2,-0.4 -2,-0.3c-1.3,0.1 -2.3,0.5 -3,1.3c-0.7,0.8 -1,1.9 -1,3.2c0,1.6 0.3,2.8 0.9,3.9s1.6,2.1 2.9,3.2l6.3,5.5c1.1,1 2,1.9 2.8,2.8c0.8,0.9 1.5,1.9 2.2,3.1c0.7,1.2 1.3,2.4 1.6,3.8c0.4,1.4 0.6,2.9 0.6,4.4c0,3.5 -1.1,6.4 -3.4,8.6c-2,2 -4.9,3.1 -8.6,3.1z" class="st0"/>
    <path id="svg_12" d="m470.8,487.96667l0,-48.6l8.1,0l0,27.8l8.7,-13.8l8.9,0l-8.5,13.9l8.3,20.8l-8.6,0l-6.2,-17.1l-2.6,3.8l0,13.2l-8.1,0z" class="st0"/>
    <path id="svg_13" d="m499.8,447.86667l0,-6.9l8.2,0l0,6.9l-8.2,0zm0,40.2l0,-34.7l8.2,0l0,34.7l-8.2,0z" class="st0"/>
    <path id="svg_14" d="m515,488.06667l0,-48.6l8.2,0l0,48.6l-8.2,0z" class="st0"/>
    <path id="svg_15" d="m530.2,488.06667l0,-48.6l8.2,0l0,48.6l-8.2,0z" class="st0"/>
    <path id="svg_16" d="m553.8,488.56667c-2.9,0 -5.2,-0.8 -7.1,-2.4s-3.1,-3.9 -3.8,-6.9l6.2,-2.3c0.4,1.9 1,3.4 1.8,4.4s1.8,1.5 2.9,1.4c0.9,0 1.6,-0.3 2.1,-0.9s0.8,-1.3 0.8,-2.2c-0.1,-1.3 -1.2,-2.8 -3.4,-4.7l-4.7,-4c-3.4,-2.9 -5,-5.9 -4.9,-9.1c0.1,-2.8 1,-5 2.8,-6.6s4.2,-2.5 7,-2.5c2.7,0 4.9,0.8 6.6,2.5s2.8,3.8 3.3,6.6l-5.4,2.3c-0.7,-3.6 -2.1,-5.4 -4.2,-5.4c-0.9,0 -1.5,0.2 -2.1,0.8s-0.8,1.2 -0.8,2c0,1.1 0.9,2.4 2.9,4.1l4.7,4.3c0.8,0.7 1.5,1.3 2,1.9s1.1,1.2 1.7,2s1,1.7 1.3,2.6s0.4,1.9 0.4,3c0,2.9 -1,5.2 -2.9,6.8s-4.2,2.3 -7.2,2.3z" class="st0"/>
   </g>
  </g>
  <g id="design">
   <g id="svg_17" class="main-circle">
    <circle r="97.3" cy="199.16667" cx="175.5" class="st1" id="main-circle_1_"/>
    <g class="icon" id="icon">
     <g id="svg_18">
      <path id="svg_19" d="m177.8,211.36667l0,2.4c0.2,9.5 -6.4,16.1 -16,16.1c-11.3,0 -16.3,-9 -16.3,-19.3c1.2,0.8 5.6,4.3 7,4.3c0.8,0 1.5,-0.5 1.8,-1.2c2.8,-7.4 7.3,-8.8 14.8,-9.1c1.8,3.3 5,5.8 8.7,6.8zm27.7,-36c0,1.8 -0.7,3.5 -1.5,5.1c-2.6,5 -11.4,21.3 -15.6,25.2c-2,1.9 -4.5,3 -7.3,3c-5.7,0 -10.3,-4.8 -10.3,-10.4c0,-2.7 1.1,-5.3 3.1,-7.1l21.4,-19.4c1.2,-1.1 2.7,-1.8 4.4,-1.8c3,-0.1 5.8,2.2 5.8,5.4z" class="st10"/>
     </g>
    </g>
    <g class="st4 hover-content" id="hover-content_2_">
     <g class="st5" id="ai">
      <circle id="svg_20" r="56.5" cy="58.67778" cx="56.5" class="st6"/>
      <g id="svg_21">
       <path id="svg_22" d="m42.3,63.57778l-4.2,12.7l-5.4,0l13.7,-40.4l6.3,0l13.8,40.4l-5.5,0l-4.3,-12.7l-14.4,0zm13.3,-4.1l-4,-11.6c-0.9,-2.6 -1.5,-5 -2.1,-7.4l-0.1,0c-0.6,2.4 -1.3,4.9 -2,7.3l-4,11.7l12.2,0z" class="st7"/>
       <path id="svg_23" d="m78,39.07778c0.1,1.8 -1.3,3.2 -3.4,3.2c-1.9,0 -3.2,-1.4 -3.2,-3.2c0,-1.9 1.4,-3.3 3.3,-3.3c2.1,0 3.3,1.4 3.3,3.3zm-5.9,37.2l0,-29l5.3,0l0,29l-5.3,0z" class="st7"/>
      </g>
     </g>
     <g class="st5" id="ps">
      <circle id="svg_24" r="56.5" cy="58.67778" cx="296.5" class="st8"/>
      <g id="svg_25">
       <path id="svg_26" d="m273.9,36.27778c2.5,-0.4 5.8,-0.8 10,-0.8c5.2,0 8.9,1.2 11.3,3.4c2.2,1.9 3.5,4.9 3.5,8.5c0,3.7 -1.1,6.5 -3.1,8.6c-2.8,2.9 -7.3,4.4 -12.4,4.4c-1.6,0 -3,-0.1 -4.2,-0.4l0,16.2l-5.2,0l0,-39.9l0.1,0zm5.2,19.5c1.1,0.3 2.6,0.4 4.3,0.4c6.3,0 10.1,-3.1 10.1,-8.6c0,-5.3 -3.8,-7.9 -9.5,-7.9c-2.3,0 -4,0.2 -4.9,0.4l0,15.7z" class="st9"/>
       <path id="svg_27" d="m303.6,70.87778c1.6,1 4.3,2.1 7,2.1c3.8,0 5.6,-1.9 5.6,-4.3c0,-2.5 -1.5,-3.9 -5.4,-5.3c-5.2,-1.9 -7.7,-4.7 -7.7,-8.2c0,-4.7 3.8,-8.5 10,-8.5c2.9,0 5.5,0.8 7.1,1.8l-1.3,3.8c-1.1,-0.7 -3.2,-1.7 -5.9,-1.7c-3.1,0 -4.9,1.8 -4.9,4c0,2.4 1.7,3.5 5.5,4.9c5,1.9 7.6,4.4 7.6,8.8c0,5.1 -4,8.7 -10.9,8.7c-3.2,0 -6.1,-0.8 -8.2,-2l1.5,-4.1z" class="st9"/>
      </g>
     </g>
    </g>
   </g>
   <g id="svg_28">
    <path id="svg_29" d="m142.02222,327.76667l0,-19.4l4.5,0c1.2,0 2.2,0.1 2.9,0.4s1.4,0.6 1.9,1.1s0.8,1.1 1,1.9s0.3,1.6 0.3,2.7l0,7c0,1.1 -0.1,2.1 -0.3,2.8s-0.5,1.4 -1,2s-1.1,0.9 -1.9,1.2s-1.7,0.4 -2.8,0.4l-4.6,0l0,-0.1zm3.5,-2.4l1,0c0.4,0 0.7,0 0.9,-0.1s0.5,-0.1 0.7,-0.2s0.3,-0.2 0.5,-0.4s0.2,-0.4 0.3,-0.5s0.1,-0.4 0.1,-0.7s0.1,-0.6 0.1,-0.8s0,-0.6 0,-1l0,-7.1c0,-0.5 0,-0.8 0,-1.1s-0.1,-0.6 -0.1,-0.8s-0.1,-0.5 -0.3,-0.7s-0.3,-0.3 -0.5,-0.4s-0.4,-0.2 -0.7,-0.3s-0.6,-0.1 -1,-0.1l-1,0l0,14.2z" class="st3"/>
    <path id="svg_30" d="m159.22222,328.06667c-1.6,0 -2.7,-0.4 -3.4,-1.3s-1,-2.2 -1,-3.9l0,-3.9c0,-1.7 0.4,-3 1.1,-3.9s1.8,-1.3 3.4,-1.3c0.8,0 1.5,0.1 2.1,0.4s1,0.6 1.3,1.1s0.5,1.1 0.7,1.7s0.2,1.4 0.2,2.3l0,1.8l-5.5,0l0,2.1c0,0.3 0,0.5 0,0.7s0,0.4 0,0.6s0.1,0.4 0.1,0.5s0.1,0.3 0.2,0.4s0.2,0.2 0.3,0.3s0.3,0.1 0.5,0.1c0.4,0 0.7,-0.2 0.9,-0.5s0.3,-0.8 0.3,-1.3l0,-0.8l3.1,0l0,0.6c0,1.4 -0.4,2.5 -1.1,3.3s-1.7,1 -3.2,1zm-1.2,-8.7l2.4,0l0,-1.3c0,-0.7 -0.1,-1.2 -0.3,-1.5s-0.5,-0.5 -0.9,-0.5c-0.5,0 -0.8,0.2 -0.9,0.5s-0.2,1 -0.2,1.9l0,0.9l-0.1,0z" class="st3"/>
    <path id="svg_31" d="m169.42222,328.06667c-1.1,0 -2.1,-0.3 -2.8,-1s-1.2,-1.6 -1.5,-2.8l2.5,-0.9c0.2,0.8 0.4,1.3 0.7,1.7s0.7,0.6 1.2,0.6c0.3,0 0.6,-0.1 0.8,-0.4s0.3,-0.5 0.3,-0.9c0,-0.5 -0.5,-1.1 -1.4,-1.9l-1.9,-1.6c-1.3,-1.2 -2,-2.4 -2,-3.6c0,-1.1 0.4,-2 1.1,-2.7s1.7,-1 2.8,-1c1.1,0 2,0.3 2.6,1s1.1,1.5 1.3,2.6l-2.2,0.9c-0.3,-1.4 -0.9,-2.2 -1.7,-2.2c-0.3,0 -0.6,0.1 -0.8,0.3s-0.3,0.5 -0.3,0.8c0,0.4 0.4,1 1.2,1.7l1.9,1.7c0.3,0.3 0.6,0.5 0.8,0.8s0.4,0.5 0.7,0.8s0.4,0.7 0.5,1s0.2,0.8 0.2,1.2c0,1.2 -0.4,2.1 -1.2,2.7s-1.6,1.2 -2.8,1.2z" class="st3"/>
    <path id="svg_32" d="m175.42222,311.76667l0,-2.8l3.3,0l0,2.8l-3.3,0zm0,16l0,-13.9l3.3,0l0,13.9l-3.3,0z" class="st3"/>
    <path id="svg_33" d="m186.02222,332.06667c-0.4,0 -0.8,0 -1.1,0s-0.7,0 -1.1,-0.1s-0.8,-0.1 -1,-0.2s-0.6,-0.2 -0.9,-0.3s-0.6,-0.3 -0.8,-0.4s-0.3,-0.4 -0.5,-0.6s-0.2,-0.5 -0.2,-0.8c0,-1.2 0.7,-2.1 2,-2.9c-0.9,-0.3 -1.4,-0.8 -1.5,-1.6c0,-0.5 0.1,-0.9 0.3,-1.3s0.7,-0.8 1.3,-1.3c-0.5,-0.4 -0.9,-0.9 -1.2,-1.5s-0.4,-1.4 -0.4,-2.4c0,-1.7 0.4,-3 1.1,-3.8s1.8,-1.2 3.2,-1.2c1.4,0 2.4,0.5 3,1.4c0.2,-0.2 0.4,-0.5 0.8,-0.8s0.7,-0.5 1.1,-0.7l0.5,-0.2l0.8,1.8c-0.3,0.1 -0.7,0.2 -1.2,0.4s-0.9,0.4 -1.1,0.5c0.1,0.3 0.3,0.7 0.4,1.2s0.2,1 0.2,1.5c0,3.2 -1.4,4.8 -4.2,4.8c-0.2,0 -0.5,0 -0.9,-0.1s-0.7,-0.1 -0.8,-0.2c-0.3,0.4 -0.4,0.7 -0.4,0.9c0,0.3 0.4,0.5 1.2,0.6c0.1,0 0.5,0.1 1.2,0.1s1.2,0.1 1.3,0.1c1.2,0.1 2,0.5 2.6,1s0.8,1.3 0.8,2.4c0,1.2 -0.3,2.1 -1,2.7s-1.9,1 -3.5,1zm0,-2.4c0.7,0 1.2,-0.1 1.5,-0.3s0.5,-0.4 0.5,-0.8c0,-0.4 -0.1,-0.7 -0.3,-0.9s-0.7,-0.3 -1.3,-0.4l-2.2,-0.2c-0.5,0.6 -0.7,1.1 -0.7,1.5c0,0.3 0.1,0.4 0.2,0.6s0.4,0.3 0.8,0.3s0.8,0.2 1.5,0.2zm-0.6,-8.2c0.5,0 0.9,-0.2 1.1,-0.6s0.2,-1.1 0.2,-2.2c0,-1.1 -0.1,-1.8 -0.2,-2.2s-0.5,-0.6 -1.1,-0.6c-0.6,0 -0.9,0.2 -1.1,0.6s-0.2,1.2 -0.2,2.2c0,0.4 0,0.7 0,1s0.1,0.5 0.1,0.8s0.1,0.4 0.2,0.6s0.2,0.3 0.4,0.3s0.4,0.1 0.6,0.1z" class="st3"/>
    <path id="svg_34" d="m192.42222,327.76667l0,-13.9l3.3,0l0,1.4c1.1,-1 2.2,-1.6 3.4,-1.6c0.8,0 1.4,0.3 1.7,0.9s0.5,1.3 0.5,2.1l0,11.1l-3.3,0l0,-10.4c0,-0.4 -0.1,-0.8 -0.2,-1s-0.4,-0.3 -0.7,-0.3c-0.4,0 -0.9,0.2 -1.5,0.6l0,11l-3.2,0l0,0.1z" class="st3"/>
   </g>
  </g>
  <g id="frontend">
   <g id="svg_35" class="main-circle">
    <circle r="97.3" cy="199.16667" cx="808.2" class="st1" id="main-circle"/>
    <g class="icon" id="icon_1_">
     <g id="svg_36">
      <path id="svg_37" d="m795,218.36667c-0.4,0.4 -1.1,0.4 -1.5,0l-15.6,-15.6c-0.4,-0.4 -0.4,-1.1 0,-1.5l15.6,-15.6c0.4,-0.4 1.1,-0.4 1.5,0l1.7,1.7c0.4,0.4 0.4,1.1 0,1.5l-13.2,13.2l13.2,13.2c0.4,0.4 0.4,1.1 0,1.5l-1.7,1.6zm9,5.8c-0.2,0.6 -0.8,0.9 -1.3,0.7l-2.1,-0.6c-0.6,-0.2 -0.9,-0.8 -0.7,-1.3l12.5,-43.2c0.2,-0.6 0.8,-0.9 1.3,-0.7l2.1,0.6c0.6,0.2 0.9,0.8 0.7,1.3l-12.5,43.2zm18.9,-5.8c-0.4,0.4 -1.1,0.4 -1.5,0l-1.7,-1.7c-0.4,-0.4 -0.4,-1.1 0,-1.5l13.2,-13.2l-13.2,-13.2c-0.4,-0.4 -0.4,-1.1 0,-1.5l1.7,-1.7c0.4,-0.4 1.1,-0.4 1.5,0l15.6,15.6c0.4,0.4 0.4,1.1 0,1.5l-15.6,15.7z" class="st10"/>
     </g>
    </g>
    <g class="hover-content st4" id="hover-content_1_">
     <g class="st5" id="html">
      <circle id="svg_38" r="56.5" cy="58.27778" cx="690.6" class="st11"/>
      <path id="svg_39" d="m662,25.67778l5.2,58.6l23.4,6.6l23.5,-6.6l5.2,-58.6l-57.3,0zm46,19.1l-27.5,0l0.6,7.4l26.2,0l-2,22.2l-14.6,4l0,0l-0.2,0l-14.7,-4.1l-0.9,-11.3l7.1,0l0.5,5.7l8,2.2l8,-2.2l0.9,-9.3l-24.9,0l-1.9,-21.8l36,0l-0.6,7.2z" class="st1"/>
     </g>
     <g class="st5" id="css">
      <circle id="svg_40" r="56.5" cy="58.27778" cx="924.1" class="st12"/>
      <path id="svg_41" d="m895.3,25.67778l5.4,58.9l23.5,6.3l23.5,-6.3l5.4,-58.8l-57.8,-0.1l0,0zm46.3,19.1l-17.3,7.4l0,0l16.7,0l-1.9,22l-14.8,4.3l-14.9,-4.4l-1,-11.1l7.3,0l0.5,5.7l7.9,2l8.2,-2.3l0.6,-9.3l-25,-0.1l0,0l0,0l-0.6,-6.9l16.8,-7l1,-0.4l-1,0l-17.5,0l-0.9,-7.1l18.4,0l18,0l-0.5,7.2z" class="st1"/>
     </g>
     <g class="st5" id="js">
      <circle id="svg_42" r="56.5" cy="338.54444" cx="923.1" class="st13"/>
      <g id="svg_43">
       <path id="svg_44" d="m906.5,344.44444c0,6.9 -2.8,8.8 -7,8.8c-2,0 -3.9,-0.3 -5.3,-0.8l-1.2,8.2c2,0.7 5.1,1.1 7.5,1.1c9.8,0 16,-4.5 16,-17.2l0,-28.7l-10,0l0,28.6z" class="st14"/>
       <path id="svg_45" d="m942.2,334.44444c-5.8,-2.3 -8.3,-3.5 -8.3,-6.4c0,-2.3 2.1,-4.3 6.5,-4.3c4.3,0 7.6,1.3 9.3,2.1l2.3,-8.1c-2.7,-1.3 -6.3,-2.3 -11.4,-2.3c-10.5,0 -16.9,5.8 -16.9,13.4c0,6.6 4.9,10.7 12.4,13.4c5.4,1.9 7.5,3.5 7.5,6.2c0,3 -2.5,4.9 -7.1,4.9c-4.3,0 -8.6,-1.4 -11.2,-2.8l-2.1,8.3c2.5,1.4 7.6,2.8 12.7,2.8c12.3,0 18,-6.4 18,-13.9c-0.1,-6.3 -3.8,-10.4 -11.7,-13.3z" class="st14"/>
      </g>
     </g>
    </g>
   </g>
   <g id="svg_46">
    <path id="svg_47" d="m767.03333,327.76667l0,-19.4l8,0l0,2.4l-4.4,0l0,5.6l3.6,0l0,2.5l-3.6,0l0,8.8l-3.6,0l0,0.1z" class="st3"/>
    <path id="svg_48" d="m776.53333,327.76667l0,-13.9l3.3,0l0,2.1c0.5,-0.8 0.9,-1.4 1.4,-1.8s1,-0.5 1.5,-0.5c0.2,0 0.3,0 0.5,0.1l0,3.2c-0.4,-0.1 -0.7,-0.2 -1.1,-0.2c-0.5,0 -0.9,0.1 -1.2,0.4s-0.7,0.6 -1,1.1l0,9.5l-3.4,0z" class="st3"/>
    <path id="svg_49" d="m788.93333,328.06667c-1.5,0 -2.6,-0.4 -3.3,-1.3s-1.1,-2 -1.1,-3.6l0,-4.6c0,-1.6 0.4,-2.8 1.1,-3.6s1.8,-1.3 3.3,-1.3c1.5,0 2.6,0.4 3.4,1.3s1.1,2 1.1,3.6l0,4.6c0,1.6 -0.4,2.8 -1.1,3.6s-1.9,1.3 -3.4,1.3zm0,-2.3c0.3,0 0.5,-0.1 0.7,-0.2s0.3,-0.3 0.4,-0.5s0.1,-0.5 0.1,-0.7s0,-0.5 0,-0.9l0,-5c0,-0.3 0,-0.5 0,-0.7s0,-0.4 -0.1,-0.6s-0.1,-0.4 -0.2,-0.5s-0.2,-0.2 -0.4,-0.3s-0.3,-0.1 -0.6,-0.1c-0.3,0 -0.5,0.1 -0.7,0.2s-0.3,0.3 -0.4,0.6s-0.1,0.5 -0.1,0.7s0,0.5 0,0.9l0,5c0,0.3 0,0.5 0,0.7s0,0.4 0.1,0.6s0.1,0.4 0.2,0.5s0.2,0.2 0.4,0.3s0.4,0 0.6,0z" class="st3"/>
    <path id="svg_50" d="m795.63333,327.76667l0,-13.9l3.3,0l0,1.4c1.1,-1 2.2,-1.6 3.4,-1.6c0.8,0 1.4,0.3 1.7,0.9s0.5,1.3 0.5,2.1l0,11.1l-3.2,0l0,-10.4c0,-0.4 -0.1,-0.8 -0.2,-1s-0.4,-0.3 -0.7,-0.3c-0.4,0 -0.9,0.2 -1.5,0.6l0,11l-3.3,0l0,0.1z" class="st3"/>
    <path id="svg_51" d="m810.83333,327.96667c-0.6,0 -1.2,-0.1 -1.6,-0.3s-0.8,-0.5 -1,-0.9s-0.4,-0.8 -0.5,-1.3s-0.2,-1 -0.2,-1.6l0,-7.8l-1.4,0l0,-2.2l1.4,0l0,-4.1l3.3,0l0,4.1l2.1,0l0,2.2l-2.1,0l0,8c0,0.5 0.1,0.8 0.3,1s0.5,0.3 1,0.3c0.3,0 0.6,0 1,-0.1l0,2.5c-0.9,0.2 -1.7,0.2 -2.3,0.2z" class="st3"/>
    <path id="svg_52" d="m819.23333,328.06667c-1.6,0 -2.7,-0.4 -3.4,-1.3s-1,-2.2 -1,-3.9l0,-3.9c0,-1.7 0.4,-3 1.1,-3.9s1.8,-1.3 3.4,-1.3c0.8,0 1.5,0.1 2.1,0.4s1,0.6 1.3,1.1s0.5,1.1 0.7,1.7s0.2,1.4 0.2,2.3l0,1.8l-5.5,0l0,2.1c0,0.3 0,0.5 0,0.7s0,0.4 0,0.6s0.1,0.4 0.1,0.5s0.1,0.3 0.2,0.4s0.2,0.2 0.3,0.3s0.3,0.1 0.5,0.1c0.4,0 0.7,-0.2 0.9,-0.5s0.3,-0.8 0.3,-1.3l0,-0.8l3.1,0l0,0.6c0,1.4 -0.4,2.5 -1.1,3.3s-1.8,1 -3.2,1zm-1.3,-8.7l2.4,0l0,-1.3c0,-0.7 -0.1,-1.2 -0.3,-1.5s-0.5,-0.5 -0.9,-0.5c-0.5,0 -0.8,0.2 -0.9,0.5s-0.2,1 -0.2,1.9l0,0.9l-0.1,0z" class="st3"/>
    <path id="svg_53" d="m825.73333,327.76667l0,-13.9l3.3,0l0,1.4c1.1,-1 2.2,-1.6 3.4,-1.6c0.8,0 1.4,0.3 1.7,0.9s0.5,1.3 0.5,2.1l0,11.1l-3.3,0l0,-10.4c0,-0.4 -0.1,-0.8 -0.2,-1s-0.4,-0.3 -0.7,-0.3c-0.4,0 -0.9,0.2 -1.5,0.6l0,11l-3.2,0l0,0.1z" class="st3"/>
    <path id="svg_54" d="m840.23333,328.06667c-1.1,0 -2,-0.4 -2.5,-1.2s-0.8,-2.1 -0.8,-3.8l0,-4c0,-0.7 0.1,-1.4 0.2,-2s0.3,-1.2 0.5,-1.7s0.6,-0.9 1,-1.2s1,-0.4 1.6,-0.4c0.9,0 1.7,0.4 2.5,1.1l0,-6.4l3.3,0l0,19.4l-3.3,0l0,-0.9c-0.8,0.7 -1.6,1.1 -2.5,1.1zm1.1,-2.4c0.4,0 0.8,-0.1 1.3,-0.4l0,-8.9c-0.4,-0.3 -0.9,-0.4 -1.3,-0.4c-0.4,0 -0.8,0.2 -0.9,0.6s-0.3,0.9 -0.3,1.5l0,5.1c0,0.5 0,0.9 0.1,1.2s0.2,0.6 0.4,0.8s0.4,0.5 0.7,0.5z" class="st3"/>
   </g>
  </g>
  <g id="mobileapps">
   <g id="svg_55">
    <path id="svg_56" d="m757.05556,797.46667l0.3,-19.4l3.6,0l2.8,13.7l2.9,-13.7l3.6,0l0.3,19.4l-2.7,0l-0.2,-13.4l-2.8,13.4l-2.1,0l-2.8,-13.4l-0.2,13.4l-2.7,0z" class="st3"/>
    <path id="svg_57" d="m777.45556,797.66667c-1.5,0 -2.6,-0.4 -3.3,-1.3s-1.1,-2 -1.1,-3.6l0,-4.6c0,-1.6 0.4,-2.8 1.1,-3.6s1.8,-1.3 3.3,-1.3c1.5,0 2.6,0.4 3.4,1.3s1.1,2 1.1,3.6l0,4.6c0,1.6 -0.4,2.8 -1.1,3.6s-1.9,1.3 -3.4,1.3zm0,-2.3c0.3,0 0.5,-0.1 0.7,-0.2s0.3,-0.3 0.4,-0.5s0.1,-0.5 0.1,-0.7s0,-0.5 0,-0.9l0,-5c0,-0.3 0,-0.5 0,-0.7s0,-0.4 -0.1,-0.6s-0.1,-0.4 -0.2,-0.5s-0.2,-0.2 -0.4,-0.3s-0.3,-0.1 -0.6,-0.1c-0.3,0 -0.5,0.1 -0.7,0.2s-0.3,0.3 -0.4,0.6s-0.1,0.5 -0.1,0.7s0,0.5 0,0.9l0,5c0,0.3 0,0.5 0,0.7s0,0.4 0.1,0.6s0.1,0.4 0.2,0.5s0.2,0.2 0.4,0.3s0.4,0 0.6,0z" class="st3"/>
    <path id="svg_58" d="m790.05556,797.66667c-0.9,0 -1.7,-0.4 -2.6,-1.2l0,1l-3.3,0l0,-19.4l3.3,0l0,6.6c0.9,-0.9 1.8,-1.3 2.8,-1.3c0.5,0 0.9,0.1 1.3,0.3s0.7,0.5 0.9,0.8s0.4,0.7 0.5,1.1s0.2,0.9 0.3,1.2s0.1,0.8 0.1,1.2l0,4.5c0,0.7 -0.1,1.3 -0.2,1.9s-0.3,1.1 -0.6,1.6s-0.6,0.9 -1,1.1s-0.9,0.6 -1.5,0.6zm-1.1,-2.3c0.2,0 0.4,-0.1 0.6,-0.2s0.3,-0.3 0.4,-0.6s0.1,-0.5 0.1,-0.8s0,-0.6 0,-1l0,-4.8c0,-0.3 0,-0.6 0,-0.9s-0.1,-0.5 -0.2,-0.7s-0.2,-0.4 -0.4,-0.5s-0.4,-0.2 -0.6,-0.2c-0.4,0 -0.9,0.2 -1.4,0.5l0,8.7c0.5,0.3 0.9,0.5 1.5,0.5z" class="st3"/>
    <path id="svg_59" d="m795.75556,781.46667l0,-2.8l3.3,0l0,2.8l-3.3,0zm0,16l0,-13.9l3.3,0l0,13.9l-3.3,0z" class="st3"/>
    <path id="svg_60" d="m801.75556,797.46667l0,-19.4l3.3,0l0,19.4l-3.3,0z" class="st3"/>
    <path id="svg_61" d="m811.85556,797.66667c-1.6,0 -2.7,-0.4 -3.4,-1.3s-1,-2.2 -1,-3.9l0,-3.9c0,-1.7 0.4,-3 1.1,-3.9s1.8,-1.3 3.4,-1.3c0.8,0 1.5,0.1 2.1,0.4s1,0.6 1.3,1.1s0.5,1.1 0.7,1.7s0.2,1.4 0.2,2.3l0,1.8l-5.5,0l0,2.1c0,0.3 0,0.5 0,0.7s0,0.4 0,0.6s0.1,0.4 0.1,0.5s0.1,0.3 0.2,0.4s0.2,0.2 0.3,0.3s0.3,0.1 0.5,0.1c0.4,0 0.7,-0.2 0.9,-0.5s0.3,-0.8 0.3,-1.3l0,-0.9l3.1,0l0,0.6c0,1.4 -0.4,2.5 -1.1,3.3s-1.8,1.1 -3.2,1.1zm-1.2,-8.6l2.4,0l0,-1.3c0,-0.7 -0.1,-1.2 -0.3,-1.5s-0.5,-0.5 -0.9,-0.5c-0.5,0 -0.8,0.2 -0.9,0.5s-0.2,1 -0.2,1.9l0,0.9l-0.1,0z" class="st3"/>
    <path id="svg_62" d="m823.45556,797.46667l3.9,-19.4l3.7,0l3.9,19.4l-3.3,0l-0.8,-4.5l-3.3,0l-0.8,4.5l-3.3,0zm4.5,-6.8l2.6,0l-1.3,-8l-1.3,8z" class="st3"/>
    <path id="svg_63" d="m836.75556,802.06667l0,-18.4l3.3,0l0,1.1c0.9,-0.9 1.8,-1.3 2.8,-1.3c0.5,0 0.9,0.1 1.3,0.3s0.7,0.5 0.9,0.8s0.4,0.7 0.5,1.1s0.2,0.9 0.3,1.2s0.1,0.8 0.1,1.2l0,4.5c0,0.7 -0.1,1.3 -0.2,1.9s-0.3,1.1 -0.6,1.6s-0.6,0.9 -1,1.1s-0.9,0.4 -1.5,0.4c-0.9,0 -1.7,-0.4 -2.6,-1.3l0,5.6l-3.3,0l0,0.2zm4.7,-6.7c0.2,0 0.4,-0.1 0.6,-0.2s0.3,-0.3 0.4,-0.6s0.1,-0.5 0.2,-0.8s0,-0.6 0,-1l0,-4.8c0,-0.3 0,-0.6 -0.1,-0.9s-0.1,-0.5 -0.2,-0.7s-0.2,-0.4 -0.4,-0.5s-0.4,-0.2 -0.6,-0.2c-0.4,0 -0.9,0.2 -1.4,0.6l0,8.7c0.5,0.2 1,0.4 1.5,0.4z" class="st3"/>
    <path id="svg_64" d="m848.15556,802.06667l0,-18.4l3.3,0l0,1.1c0.9,-0.9 1.8,-1.3 2.8,-1.3c0.5,0 0.9,0.1 1.3,0.3s0.7,0.5 0.9,0.8s0.4,0.7 0.5,1.1s0.2,0.9 0.3,1.2s0.1,0.8 0.1,1.2l0,4.5c0,0.7 -0.1,1.3 -0.2,1.9s-0.3,1.1 -0.6,1.6s-0.6,0.9 -1,1.1s-0.9,0.4 -1.5,0.4c-0.9,0 -1.7,-0.4 -2.6,-1.3l0,5.6l-3.3,0l0,0.2zm4.7,-6.7c0.2,0 0.4,-0.1 0.6,-0.2s0.3,-0.3 0.4,-0.6s0.1,-0.5 0.2,-0.8s0,-0.6 0,-1l0,-4.8c0,-0.3 0,-0.6 -0.1,-0.9s-0.1,-0.5 -0.2,-0.7s-0.2,-0.4 -0.4,-0.5s-0.4,-0.2 -0.6,-0.2c-0.4,0 -0.9,0.2 -1.4,0.6l0,8.7c0.5,0.2 1,0.4 1.5,0.4z" class="st3"/>
    <path id="svg_65" d="m863.15556,797.66667c-1.1,0 -2.1,-0.3 -2.8,-1s-1.2,-1.6 -1.5,-2.8l2.5,-0.9c0.2,0.8 0.4,1.3 0.7,1.7s0.7,0.6 1.2,0.6c0.3,0 0.6,-0.1 0.8,-0.4s0.3,-0.5 0.3,-0.9c0,-0.5 -0.5,-1.1 -1.4,-1.9l-1.9,-1.6c-1.3,-1.2 -2,-2.4 -2,-3.6c0,-1.1 0.4,-2 1.1,-2.7s1.7,-1 2.8,-1c1.1,0 2,0.3 2.6,1s1.1,1.5 1.3,2.6l-2.2,0.9c-0.3,-1.4 -0.9,-2.2 -1.7,-2.2c-0.3,0 -0.6,0.1 -0.8,0.3s-0.3,0.5 -0.3,0.8c0,0.4 0.4,1 1.2,1.7l1.9,1.7c0.3,0.3 0.6,0.5 0.8,0.8s0.4,0.5 0.7,0.8s0.4,0.7 0.5,1s0.2,0.8 0.2,1.2c0,1.2 -0.4,2.1 -1.2,2.7s-1.6,1.2 -2.8,1.2z" class="st3"/>
   </g>
   <g id="svg_66" class="main-circle">
    <circle r="97.3" cy="667.66667" cx="808.2" class="st1" id="main-circle_2_"/>
    <g class="icon" id="icon_3_">
     <g id="svg_67">
      <path id="svg_68" d="m823.6,689.06667c0,2.8 -2.3,5.1 -5.1,5.1l-20.6,0c-2.8,0 -5.1,-2.3 -5.1,-5.1l0,-41.1c0,-2.8 2.3,-5.1 5.1,-5.1l20.6,0c2.8,0 5.1,2.3 5.1,5.1l0,41.1zm-3.8,-34.8c0,-0.7 -0.6,-1.3 -1.3,-1.3l-20.6,0c-0.7,0 -1.3,0.6 -1.3,1.3l0,28.3c0,0.7 0.6,1.3 1.3,1.3l20.6,0c0.7,0 1.3,-0.6 1.3,-1.3l0,-28.3zm-8.4,-6.4l-6.4,0c-0.4,0 -0.6,0.3 -0.6,0.6c0,0.4 0.3,0.6 0.6,0.6l6.4,0c0.4,0 0.6,-0.3 0.6,-0.6c0,-0.3 -0.2,-0.6 -0.6,-0.6zm-3.2,37.9c-1.8,0 -3.2,1.4 -3.2,3.2s1.4,3.2 3.2,3.2s3.2,-1.4 3.2,-3.2s-1.4,-3.2 -3.2,-3.2z" class="st10"/>
     </g>
    </g>
    <g class="st4 hover-content" id="hover-content">
     <g class="st5" id="android">
      <circle id="svg_69" r="56.5" cy="528.87778" cx="923.1" class="st15"/>
      <g id="android-man">
       <path id="svg_70" d="m931.9,507.67778c-0.9,0 -1.7,0.7 -1.7,1.7c0,0.9 0.8,1.7 1.7,1.7c0.9,0 1.7,-0.7 1.7,-1.7c0,-0.9 -0.8,-1.7 -1.7,-1.7z" class="st16"/>
       <path id="svg_71" d="m915.8,507.67778c-0.9,0 -1.7,0.7 -1.7,1.7c0,0.9 0.8,1.7 1.7,1.7c0.9,0 1.7,-0.7 1.7,-1.7c0,-0.9 -0.8,-1.7 -1.7,-1.7z" class="st16"/>
       <path id="svg_72" d="m901,518.07778l-0.2,0c-2.1,0 -3.3,1.6 -3.3,3.6l0,16.3c0,2.1 1.3,3.1 3.3,3.1l0.2,0c2.1,0 3.5,-1.1 3.5,-3.1l0,-16.2c0,-2.1 -1.4,-3.7 -3.5,-3.7z" class="st1"/>
       <path id="svg_73" d="m906.5,544.27778c0,1.9 1.5,3.8 3.4,3.8l3.6,0l0,8.4c0,2.1 1.8,3.6 3.8,3.6l0.2,0c2.1,0 4,-1.6 4,-3.6l0,-8.4l4,0l0,8.4c0,2.1 2.5,3.6 4.6,3.6l0.2,0c2.1,0 4.2,-1.6 4.2,-3.6l0,-8.4l3.2,0c1.9,0 2.8,-2 2.8,-3.8l0,-26.2l-34,0l0,26.2z" class="st1"/>
       <path id="svg_74" d="m932.5,502.97778l2.9,-4.5c0.2,-0.3 0.1,-0.7 -0.2,-0.9c-0.3,-0.2 -0.7,-0.1 -0.9,0.2l-3,4.7c-2.3,-0.9 -4.8,-1.5 -7.5,-1.5s-5.2,0.5 -7.5,1.5l-3,-4.7c-0.2,-0.3 -0.6,-0.4 -0.9,-0.2c-0.3,0.2 -0.4,0.6 -0.2,0.9l2.9,4.5c-5.3,2.6 -8.8,7.5 -8.8,13.1c0,0.4 0,1.1 0.1,1.1l34.7,0c0,0 0.1,-0.7 0.1,-1.1c0.1,-5.6 -3.5,-10.5 -8.7,-13.1zm-16.7,8.1c-0.9,0 -1.7,-0.7 -1.7,-1.7c0,-0.9 0.8,-1.7 1.7,-1.7c0.9,0 1.7,0.7 1.7,1.7c0,1 -0.8,1.7 -1.7,1.7zm16.1,0c-0.9,0 -1.7,-0.7 -1.7,-1.7c0,-0.9 0.8,-1.7 1.7,-1.7c0.9,0 1.7,0.7 1.7,1.7c0,1 -0.8,1.7 -1.7,1.7z" class="st1"/>
       <path id="svg_75" d="m951.5,521.87778c0,-2.1 -1.7,-3.7 -3.7,-3.7l-0.5,0c-2.1,0 -3.7,1.7 -3.7,3.7l0,15.5c0,2.1 1.7,3.7 3.7,3.7l0.5,0c2.1,0 3.7,-1.7 3.7,-3.7l0,-15.5z" class="st1"/>
      </g>
     </g>
    </g>
   </g>
  </g>
  <g id="backend">
   <g id="svg_76">
    <path id="svg_77" d="m137.2,797.46667l0,-19.4l4.8,0c0.9,0 1.7,0.1 2.3,0.2s1.3,0.4 1.8,0.8s0.9,0.9 1.2,1.5s0.4,1.4 0.4,2.4c0,2.4 -1,3.7 -2.9,4c1.1,0.2 2,0.7 2.6,1.5s0.9,1.9 0.9,3.3c0,1.8 -0.5,3.2 -1.4,4.2s-2.3,1.4 -4.1,1.4l-5.6,0l0,0.1zm3.5,-11.5l1.1,0c1,0 1.8,-0.2 2.1,-0.7s0.6,-1.2 0.6,-2.3c0,-0.5 -0.1,-1 -0.2,-1.3s-0.3,-0.6 -0.7,-0.8s-0.6,-0.3 -1,-0.3s-0.9,-0.1 -1.5,-0.1l-0.5,0l0,5.5l0.1,0zm0,9l1.3,0c1.1,0 1.8,-0.2 2.2,-0.7s0.6,-1.3 0.6,-2.4c0,-1.2 -0.2,-2 -0.7,-2.5s-1.2,-0.8 -2.3,-0.8l-1.1,0l0,6.4z" class="st3"/>
    <path id="svg_78" d="m152.9,797.66667c-0.9,0 -1.6,-0.3 -2.2,-1s-0.8,-1.4 -0.8,-2.3c0,-0.8 0.1,-1.5 0.4,-2.1s0.7,-1.1 1.3,-1.5s1.1,-0.7 1.5,-0.9s1,-0.5 1.8,-0.8c0.2,-0.1 0.4,-0.2 0.5,-0.2l0,-1.2c0,-0.6 -0.1,-1.1 -0.2,-1.4s-0.4,-0.4 -0.9,-0.4c-0.7,0 -1.1,0.5 -1.1,1.5l0,0.9l-3.1,-0.1c0,0 0,-0.1 0,-0.3s0,-0.2 0,-0.2c0.1,-1.5 0.5,-2.5 1.3,-3.2s1.8,-1 3.3,-1c1.4,0 2.4,0.4 3,1.1s1,1.8 1,3.2l0,6.3c0,1.1 0.1,2.2 0.3,3.5l-3,0c-0.2,-0.9 -0.3,-1.6 -0.3,-2c-0.2,0.6 -0.5,1.2 -1,1.6s-1,0.5 -1.8,0.5zm1.3,-2.5c0.3,0 0.5,-0.1 0.7,-0.3s0.4,-0.4 0.6,-0.6l0,-3.8c-1.6,0.9 -2.4,1.9 -2.4,3.1c0,0.5 0.1,0.9 0.3,1.2s0.5,0.4 0.8,0.4z" class="st3"/>
    <path id="svg_79" d="m165.3,797.66667c-1.6,0 -2.7,-0.4 -3.4,-1.3s-1,-2.2 -1,-3.8l0,-4c0,-1.7 0.3,-2.9 1,-3.8s1.8,-1.3 3.4,-1.3c1.5,0 2.5,0.3 3.2,1s1,1.8 1,3.2l0,1.1l-3.1,0l0,-1.1c0,-0.7 -0.1,-1.2 -0.3,-1.5s-0.5,-0.4 -0.9,-0.4c-0.5,0 -0.8,0.2 -0.9,0.5s-0.2,0.9 -0.2,1.8l0,5.1c0,0.9 0.1,1.5 0.3,1.8s0.5,0.5 0.9,0.5c0.4,0 0.7,-0.2 0.9,-0.5s0.2,-0.8 0.2,-1.4l0,-1.5l3.1,0l0,1.3c0,1.4 -0.3,2.5 -1,3.2s-1.8,1.1 -3.2,1.1z" class="st3"/>
    <path id="svg_80" d="m171.7,797.46667l0,-19.4l3.3,0l0,11.1l3.5,-5.5l3.6,0l-3.4,5.6l3.3,8.3l-3.4,0l-2.6,-6.9l-1.1,1.5l0,5.3l-3.2,0z" class="st3"/>
    <path id="svg_81" d="m187.4,797.66667c-1.6,0 -2.7,-0.4 -3.4,-1.3s-1,-2.2 -1,-3.9l0,-3.9c0,-1.7 0.4,-3 1.1,-3.9s1.8,-1.3 3.4,-1.3c0.8,0 1.5,0.1 2.1,0.4s1,0.6 1.3,1.1s0.5,1.1 0.7,1.7s0.2,1.4 0.2,2.3l0,1.8l-5.5,0l0,2.1c0,0.3 0,0.5 0,0.7s0,0.4 0,0.6s0.1,0.4 0.1,0.5s0.1,0.3 0.2,0.4s0.2,0.2 0.3,0.3s0.3,0.1 0.5,0.1c0.4,0 0.7,-0.2 0.9,-0.5s0.3,-0.8 0.3,-1.3l0,-0.9l3.1,0l0,0.6c0,1.4 -0.4,2.5 -1.1,3.3s-1.8,1.1 -3.2,1.1zm-1.2,-8.6l2.4,0l0,-1.3c0,-0.7 -0.1,-1.2 -0.3,-1.5s-0.5,-0.5 -0.9,-0.5c-0.5,0 -0.8,0.2 -0.9,0.5s-0.2,1 -0.2,1.9l0,0.9l-0.1,0z" class="st3"/>
    <path id="svg_82" d="m193.9,797.46667l0,-13.9l3.3,0l0,1.4c1.1,-1 2.2,-1.6 3.4,-1.6c0.8,0 1.4,0.3 1.7,0.9s0.5,1.3 0.5,2.1l0,11.1l-3.3,0l0,-10.4c0,-0.4 -0.1,-0.8 -0.2,-1s-0.4,-0.3 -0.7,-0.3c-0.4,0 -0.9,0.2 -1.5,0.6l0,11l-3.2,0l0,0.1z" class="st3"/>
    <path id="svg_83" d="m208.4,797.66667c-1.1,0 -2,-0.4 -2.5,-1.2s-0.8,-2.1 -0.8,-3.8l0,-4c0,-0.7 0.1,-1.4 0.2,-2s0.3,-1.2 0.5,-1.7s0.6,-0.9 1,-1.2s1,-0.4 1.6,-0.4c0.9,0 1.7,0.4 2.5,1.1l0,-6.4l3.3,0l0,19.4l-3.3,0l0,-0.9c-0.8,0.7 -1.6,1.1 -2.5,1.1zm1.2,-2.3c0.4,0 0.8,-0.1 1.3,-0.4l0,-8.9c-0.4,-0.3 -0.9,-0.4 -1.3,-0.4c-0.4,0 -0.8,0.2 -0.9,0.6s-0.3,0.9 -0.3,1.5l0,5.1c0,0.5 0,0.9 0.1,1.2s0.2,0.6 0.4,0.8s0.3,0.5 0.7,0.5z" class="st3"/>
   </g>
   <g id="svg_84" class="main-circle">
    <circle r="97.3" cy="666.53333" cx="175.5" class="st1" id="design-circle_3_"/>
    <g class="icon" id="icon_4_">
     <g id="svg_85">
      <path id="svg_86" d="m186.2,670.33333c0,0.4 -0.3,0.9 -0.8,1l-5.2,0.8c-0.3,0.9 -0.6,1.7 -1.1,2.5c0.9,1.3 1.9,2.6 3,3.8c0.1,0.2 0.2,0.4 0.2,0.7c0,0.2 -0.1,0.5 -0.2,0.6c-0.7,0.9 -4.4,5 -5.4,5c-0.3,0 -0.5,-0.1 -0.7,-0.2l-3.9,-3c-0.8,0.4 -1.7,0.8 -2.6,1c-0.2,1.7 -0.3,3.5 -0.8,5.2c-0.1,0.5 -0.5,0.8 -1,0.8l-6.2,0c-0.5,0 -0.9,-0.4 -1,-0.8l-0.8,-5.1c-0.9,-0.3 -1.7,-0.6 -2.5,-1l-4,3c-0.2,0.2 -0.4,0.2 -0.7,0.2c-0.3,0 -0.5,-0.1 -0.7,-0.3c-0.9,-0.8 -4.8,-4.4 -4.8,-5.4c0,-0.2 0.1,-0.4 0.2,-0.6c1,-1.3 2,-2.5 2.9,-3.8c-0.5,-0.9 -0.9,-1.8 -1.2,-2.7l-5.1,-0.8c-0.5,-0.1 -0.8,-0.5 -0.8,-1l0,-6.2c0,-0.4 0.3,-0.9 0.8,-1l5.2,-0.8c0.3,-0.9 0.6,-1.7 1.1,-2.5c-0.9,-1.3 -1.9,-2.6 -3,-3.9c-0.1,-0.2 -0.2,-0.4 -0.2,-0.7s0.1,-0.5 0.2,-0.7c0.7,-0.9 4.4,-5 5.4,-5c0.3,0 0.5,0.1 0.7,0.2l3.9,3c0.8,-0.4 1.7,-0.8 2.6,-1.1c0.2,-1.7 0.3,-3.5 0.8,-5.2c0.1,-0.5 0.5,-0.8 1,-0.8l6.2,0c0.5,0 0.9,0.4 1,0.8l0.8,5.1c0.9,0.3 1.7,0.6 2.5,1l4,-3c0.2,-0.2 0.4,-0.2 0.7,-0.2c0.3,0 0.5,0.1 0.7,0.3c0.9,0.8 4.8,4.4 4.8,5.4c0,0.2 -0.1,0.4 -0.2,0.6c-1,1.3 -2,2.5 -2.9,3.8c0.4,0.9 0.8,1.8 1.1,2.7l5.1,0.8c0.5,0.1 0.8,0.5 0.8,1l0,6.5l0.1,0zm-21.4,-11.7c-4.7,0 -8.6,3.8 -8.6,8.6c0,4.7 3.9,8.6 8.6,8.6s8.6,-3.9 8.6,-8.6c0,-4.8 -3.9,-8.6 -8.6,-8.6zm42.9,-6.2c0,0.5 -4.3,1 -5,1c-0.3,0.6 -0.6,1.2 -1,1.7c0.3,0.7 1.7,4 1.7,4.6c0,0.1 0,0.2 -0.1,0.2c-0.4,0.2 -4,2.4 -4.2,2.4c-0.4,0 -2.9,-3.3 -3.3,-3.9c-0.3,0 -0.7,0.1 -1,0.1s-0.7,0 -1,-0.1c-0.3,0.5 -2.8,3.9 -3.3,3.9c-0.2,0 -3.7,-2.1 -4.2,-2.4c-0.1,-0.1 -0.1,-0.2 -0.1,-0.2c0,-0.6 1.4,-4 1.7,-4.6c-0.4,-0.5 -0.7,-1.1 -1,-1.7c-0.7,-0.1 -5,-0.5 -5,-1l0,-4.7c0,-0.5 4.3,-1 5,-1c0.3,-0.6 0.6,-1.2 1,-1.7c-0.3,-0.7 -1.7,-4.1 -1.7,-4.6c0,-0.1 0,-0.2 0.1,-0.2c0.4,-0.2 4,-2.3 4.2,-2.3c0.4,0 2.9,3.3 3.3,3.8c0.3,0 0.7,-0.1 1,-0.1s0.7,0 1,0.1c0.9,-1.3 1.9,-2.6 3.1,-3.7l0.2,-0.1c0.2,0 3.7,2.1 4.2,2.3c0.1,0.1 0.1,0.2 0.1,0.2c0,0.6 -1.4,4 -1.7,4.6c0.4,0.5 0.7,1.1 1,1.7c0.7,0.1 5,0.5 5,1l0,4.7zm0,34.3c0,0.5 -4.3,1 -5,1c-0.3,0.6 -0.6,1.2 -1,1.7c0.3,0.7 1.7,4 1.7,4.6c0,0.1 0,0.2 -0.1,0.2c-0.4,0.2 -4,2.4 -4.2,2.4c-0.4,0 -2.9,-3.3 -3.3,-3.9c-0.3,0 -0.7,0.1 -1,0.1s-0.7,0 -1,-0.1c-0.3,0.5 -2.8,3.9 -3.3,3.9c-0.2,0 -3.7,-2.1 -4.2,-2.4c-0.1,-0.1 -0.1,-0.2 -0.1,-0.2c0,-0.6 1.4,-4 1.7,-4.6c-0.4,-0.5 -0.7,-1.1 -1,-1.7c-0.7,-0.1 -5,-0.5 -5,-1l0,-4.7c0,-0.5 4.3,-1 5,-1c0.3,-0.6 0.6,-1.2 1,-1.7c-0.3,-0.7 -1.7,-4.1 -1.7,-4.6c0,-0.1 0,-0.2 0.1,-0.2c0.4,-0.2 4,-2.3 4.2,-2.3c0.4,0 2.9,3.3 3.3,3.8c0.3,0 0.7,-0.1 1,-0.1s0.7,0 1,0.1c0.9,-1.3 1.9,-2.6 3.1,-3.7l0.2,-0.1c0.2,0 3.7,2.1 4.2,2.3c0.1,0.1 0.1,0.2 0.1,0.2c0,0.6 -1.4,4 -1.7,4.6c0.4,0.5 0.7,1.1 1,1.7c0.7,0.1 5,0.5 5,1l0,4.7zm-12.9,-41c-2.3,0 -4.3,1.9 -4.3,4.3c0,2.4 1.9,4.3 4.3,4.3c2.4,0 4.3,-1.9 4.3,-4.3c0,-2.3 -1.9,-4.3 -4.3,-4.3zm0,34.3c-2.3,0 -4.3,1.9 -4.3,4.3c0,2.4 1.9,4.3 4.3,4.3c2.4,0 4.3,-1.9 4.3,-4.3c0,-2.3 -1.9,-4.3 -4.3,-4.3z" class="st10"/>
     </g>
    </g>
    <g class="st4 hover-content" id="hover-content_3_">
     <g class="st5" id="wordpress">
      <circle id="svg_87" r="56.5" cy="533.1" cx="59.1" class="st17"/>
      <path fill="black" d="m25.7,533.2c-0.1,-18.6 15.3,-33.9 34,-33.8c18.4,0.1 33.5,15.3 33.5,33.8c0,18.6 -15.3,33.8 -33.9,33.7c-18.4,0 -33.6,-15.2 -33.6,-33.7zm20.3,27.1l0,0l0,0c0,-0.4 -0.1,-0.7 -0.3,-1.1c-4.6,-12.5 -9.1,-25 -13.7,-37.5c-0.1,-0.2 -0.1,-0.6 -0.3,-0.6c-0.3,0 -0.3,0.4 -0.4,0.6c-1.8,4.3 -2.5,8.7 -2.2,13.3c0.6,8.8 4.4,16 11.1,21.6c1.8,1.5 3.7,2.8 5.8,3.7l0,0zm28.7,-9.1c0.1,-0.2 0.2,-0.3 0.2,-0.4c1.5,-5.1 3.1,-10.1 4.5,-15.2c1,-3.6 0.7,-7.1 -1,-10.5c-0.6,-1.2 -1.3,-2.4 -2,-3.5c-0.8,-1.3 -1.5,-2.7 -1.8,-4.2c-0.6,-3.3 1.4,-6.1 4.7,-6.5c0.1,0 0.3,0 0.4,-0.1c0,-0.2 -0.2,-0.3 -0.3,-0.4c-6.8,-5.8 -14.7,-8.2 -23.5,-7.2c-6.5,0.7 -12.2,3.4 -17,7.9c-1.6,1.5 -3,3.1 -4.3,4.9c-0.1,0.1 -0.3,0.3 -0.2,0.5c0.1,0.2 0.4,0.2 0.6,0.2c0.6,0 1.1,0 1.7,0c2.4,0 4.9,-0.2 7.3,-0.3c0.9,0 1.5,0.4 1.5,1.1c0.1,0.7 -0.4,1.2 -1.3,1.4c-0.7,0.1 -1.5,0.2 -2.2,0.2c-1,0.1 -1,0.1 -0.7,1.1c3.5,10.3 6.9,20.5 10.4,30.8c0.1,0.2 0.1,0.5 0.4,0.7c0.2,-0.1 0.2,-0.4 0.3,-0.6c2.1,-6.1 4.1,-12.3 6.1,-18.4c0.1,-0.3 0.2,-0.6 0,-1c-1.5,-4 -2.9,-8 -4.4,-12c-0.2,-0.4 -0.4,-0.6 -0.9,-0.6c-0.9,-0.1 -1.8,-0.2 -2.6,-0.3c-0.7,-0.1 -1.1,-0.7 -1,-1.3c0.1,-0.7 0.5,-1.1 1.2,-1.1c0.2,0 0.3,0 0.5,0c3.3,0.2 6.6,0.4 9.9,0.3c1.9,-0.1 3.8,-0.2 5.7,-0.3c0.8,0 1.3,0.4 1.3,1.1c0.1,0.7 -0.4,1.2 -1.1,1.4c-0.8,0.1 -1.6,0.2 -2.3,0.2c-1.1,0.1 -1.1,0.1 -0.8,1.1c3.4,10.2 6.8,20.3 10.3,30.5c0,-0.1 0.1,0.2 0.4,0.5l0,0zm-14.6,-15.2c-0.4,0.3 -0.4,0.6 -0.5,0.9c-0.8,2.2 -1.5,4.4 -2.2,6.5c-2.1,6 -4.1,12 -6.2,17.9c-0.2,0.6 -0.3,0.9 0.5,1.1c5.8,1.5 11.4,1.3 17.1,-0.5c0.6,-0.2 0.7,-0.4 0.5,-1c-2.8,-7.5 -5.5,-15 -8.2,-22.6c-0.4,-0.6 -0.7,-1.4 -1,-2.3l0,0zm14.8,23.1c4.1,-1 11.2,-9.7 13.4,-16.4c2.6,-8.1 1.9,-16 -1.9,-23.7c-0.2,0.2 -0.2,0.3 -0.2,0.4c0.4,3.9 -0.2,7.6 -1.5,11.3c-3.2,9.2 -6.4,18.3 -9.5,27.5c-0.1,0.2 -0.3,0.5 -0.3,0.9z" class="st1" id="w"/>
     </g>
    </g>
   </g>
  </g>
 </g>
</svg>